<svg width="26" height="26" xmlns="http://www.w3.org/2000/svg"><g fill="none" fill-rule="evenodd"><circle fill="#303030" cx="13.029" cy="13" r="13"/><path d="M20.556 18.19a123.362 123.362 0 00-2.997-3.515c.31-1.264.971-5.427 1.036-6.408C20.07 7.637 21.3 7.24 22.035 7c.305.312 2.598 2.788 3.275 4.398.075 1.542-.04 2.84-.508 4.407-1.156.799-2.536 1.58-4.246 2.384zm-2.412 6.763c-3.156 1.415-6.752 1.483-9.933.133-.31-.323-.565-.776-.733-1.202.984-.223 3.965-1.278 4.598-1.597 1.536.46 3.16.714 4.876.758.25.351.573.85.968 1.497.057.125.164.285.224.411zm6.52-8.492c.172.468.242 1.338.242 1.833-.52 1.14-1.118 2.144-1.787 2.961-1.75 2.136-3.767 3.187-4.503 3.479a20.09 20.09 0 00-1.218-1.838c1.27-1.204 2.403-2.652 3.396-4.344 1.185-.513 2.475-1.21 3.87-2.091zm-17.39 6.904c-1.424-.77-3.574-2.486-4.377-3.55-.142-.393-.51-3.616-.372-5.113 1.036-.488 2.39-1.033 4.058-1.634.2.519 4.625 3.96 4.967 4.163l.138 4.737c-2 .777-3.472 1.242-4.415 1.397zm14.92-16.8a14.066 14.066 0 00-1.97-3.643c.172-.147.335-.284.493-.412 2.735 1.965 4.676 5.158 5.072 8.084-.134.11-.228.183-.322.249-.694-1.261-2.783-3.9-3.273-4.28v.002zm-5.06 8.078c-1.507.678-3.312 1.41-5.415 2.197-.099-.064-.2-.13-.303-.2-1.453-.975-2.978-2.288-4.736-4.13.145-1.815.417-3.484.817-5.01.568-.454 4.296-2.295 6.083-2.596a34.786 34.786 0 014.588 3.429c-.01.928-.67 5.03-1.035 6.31h.001zm-15.032-.357c-.162 2.206.325 5.688.36 5.737-.08.022-.223.094-.298.109C1.143 18.627-.56 15.388.181 11.028c.27-.15.576-.307.864-.46.155 1.576.713 2.968 1.057 3.718zM.28 10.448C.875 7.39 2.587 4.654 5.044 2.742c-.106.216-.926 2.157-1.183 3.036-1.378 1.52-2.31 2.942-2.798 4.269-.258.134-.456.223-.7.355l-.083.046zm4.128-4.816c.19-.805 1.079-3.042 1.339-3.393-.043-.04.95-.67 2.132-1.193.853-.378 1.778-.69 2.414-.753.427.004 3.337.817 4.374 1.315-.33.712-.812 1.693-1.293 2.91-1.744.274-5.404 2.259-5.993 2.57-.67-.474-2.229-1.232-2.973-1.456zm15.488-2.983c-1.04-.561-3.349-1.17-4.54-1.213C14.281.885 11.646.143 11.32.112a13.05 13.05 0 019.04 2.146c-.156.128-.31.258-.464.39z" fill="#EAEAEC" fill-rule="nonzero"/></g></svg>