<svg width="334" height="562" xmlns="http://www.w3.org/2000/svg"><g transform="rotate(90 166 167)" stroke="#FFF" stroke-width="2" fill="none" fill-rule="evenodd"><path d="M6 0h548v332H6z"/><path d="M79.5 201c12-7.2 20-20.2 20-35s-8-27.8-20-35m-73-54h73v178h-73m547-178h-73v178h73m-73-54c-12-7.2-20-20.2-20-35s8-27.8 20-35"/><path d="M6.5 129h29v74h-29m547-74h-29v74h29M280 0v332"/><circle cx="280" cy="166" r="44"/><path d="M6 146H0v40h6m548-40h6v40h-6M6 8c4.4 0 8-3.6 8-8m0 332c0-4.4-3.6-8-8-8m540 8c0-4.4 3.6-8 8-8m0-316c-4.4 0-8-3.6-8-8"/></g></svg>